<svg width="2153" height="329" viewBox="0 0 2153 329" fill="none" xmlns="http://www.w3.org/2000/svg">
<g clip-path="url(#clip0_11_19)">
<path d="M490 122.952C526.423 122.952 549.27 141.018 549.27 173.107V194.6C549.27 228.708 529.6 243.621 493.146 243.621H362.53V318.718H312.471V122.952H490ZM2150.14 9.43542V9.7229C2070.95 17.3392 1759.75 62.8586 1543.92 318.718H1463.83L1472.78 308.2C1517.95 256.737 1717.74 38.6227 2150.11 9.40161L2150.14 9.43542ZM823.701 318.685H764.03L737.584 275.818H583.169L609.686 242.421H716.973L665.368 158.835L695.834 114.632L823.701 318.685ZM1057.23 122.918C1083.95 122.918 1102.89 133.827 1107.76 157.059H919.904V281.906H1107.76C1102.42 307.76 1090.98 318.683 1058.67 318.685H916.543C892.012 318.685 868.916 306.919 868.914 275.683V165.92C868.914 134.682 892.012 122.919 916.543 122.918H1057.23ZM1328.74 222.23H1227.72V281.906H1400.9V318.685H1176.8V188.698H1328.74V222.23ZM1772.17 318.685H1692.87L1622.44 258.147H1622.47C1635.45 246.175 1649.2 234.165 1662.5 223.398L1772.17 318.685ZM189.451 122.918C217.134 122.918 232.93 138.997 237.794 157.059H52.6423V199.216H196.229V199.181C225.145 201.129 242.655 215.749 242.658 243.266V274.516C242.655 304.901 227.372 318.634 196.745 318.634H50.2394C22.314 318.634 6.27635 306.311 1.6521 281.871H197.503V237.112H51.9271C24.962 237.288 6.72966 222.65 6.72966 196.865V165.92C6.72966 136.381 24.4482 122.918 55.317 122.918H189.451ZM362.53 207.789H483.964C503.631 207.789 505.817 200.018 505.817 185.992V178.316C505.817 164.537 502.91 157.093 481.531 157.093H362.83L362.53 207.789ZM1605.29 171.061C1590.98 181.043 1575.38 192.555 1561.97 203.173L1468.99 122.918H1548.18L1605.29 171.061ZM1605.33 171.094L1605.29 171.061L1605.33 171.044V171.094ZM1403.27 157.059H1176.8V122.918H1403.27V157.059Z" fill="black"/>
</g>
<defs>
<clipPath id="clip0_11_19">
<rect width="2153" height="329" fill="white"/>
</clipPath>
</defs>
</svg>
